<?xml version="1.0" standalone="no"?>
<!DOCTYPE svg PUBLIC "-//W3C//DTD SVG 20010904//EN"
 "http://www.w3.org/TR/2001/REC-SVG-20010904/DTD/svg10.dtd">
<svg version="1.0" xmlns="http://www.w3.org/2000/svg"
 width="512.000000pt" height="512.000000pt" viewBox="0 0 512.000000 512.000000"
 preserveAspectRatio="xMidYMid meet">

<g transform="translate(0.000000,512.000000) scale(0.100000,-0.100000)"
fill="#000000" stroke="none">
<path d="M2112 5105 c-355 -66 -644 -279 -800 -590 -104 -206 -122 -318 -122
-751 0 -356 -9 -443 -62 -594 -37 -104 -63 -156 -140 -282 -105 -171 -163
-344 -176 -526 -20 -278 43 -522 192 -746 74 -110 142 -184 250 -271 l90 -72
35 15 c69 29 177 51 276 58 175 10 270 49 359 145 84 90 126 202 126 334 l0
52 -77 39 c-198 100 -382 284 -480 479 -44 87 -80 191 -97 285 -13 64 -16 157
-16 427 l0 344 25 25 25 25 163 -7 c274 -11 546 26 810 113 146 48 385 161
502 237 113 74 168 62 204 -45 25 -75 71 -148 119 -190 50 -44 145 -86 221
-98 42 -7 72 -18 88 -32 l23 -22 0 -343 c0 -367 -6 -430 -55 -573 -29 -87 -83
-194 -138 -276 -89 -133 -272 -289 -423 -360 l-54 -26 0 -52 c0 -172 76 -321
208 -406 72 -46 126 -62 247 -72 123 -10 238 -32 300 -59 l41 -18 90 73 c289
233 444 554 444 920 0 243 -61 434 -219 689 -56 91 -97 187 -129 305 -24 93
-25 110 -32 496 -7 429 -12 477 -67 629 -81 226 -231 417 -433 551 -110 74
-206 117 -339 153 -95 25 -101 26 -501 28 -308 2 -422 0 -478 -11z"/>
</g>
</svg>
